<svg xmlns="http://www.w3.org/2000/svg" width="57.681" height="45.949" viewBox="0 0 57.681 45.949"><g transform="translate(-979 -887)"><path d="M10.3,0A4.94,4.94,0,0,0,5.469,5.161,27.757,27.757,0,0,1,4.6,13.807C3.757,16.539,2.331,18.27,0,18.493V21c2.331.223,3.757,1.953,4.6,4.686a27.754,27.754,0,0,1,.868,8.645A4.94,4.94,0,0,0,10.3,39.495H39.284a4.939,4.939,0,0,0,4.828-5.161,27.757,27.757,0,0,1,.868-8.645c.844-2.733,2.267-4.464,4.6-4.686V18.493c-2.331-.223-3.754-1.953-4.6-4.686a27.752,27.752,0,0,1-.868-8.645A4.939,4.939,0,0,0,39.284,0H10.3Z" transform="translate(983.051 890.227)" fill="#fff" fill-rule="evenodd"/><path d="M11.981,0A5.747,5.747,0,0,0,6.363,6a32.293,32.293,0,0,1-1.01,10.058C4.371,19.242,2.711,21.257,0,21.515v2.919c2.711.259,4.371,2.273,5.353,5.452a32.29,32.29,0,0,1,1.01,10.058,5.747,5.747,0,0,0,5.618,6H45.705a5.746,5.746,0,0,0,5.617-6,32.293,32.293,0,0,1,1.01-10.058c.982-3.179,2.638-5.194,5.349-5.452V21.515c-2.711-.259-4.367-2.273-5.349-5.452A32.288,32.288,0,0,1,51.322,6a5.747,5.747,0,0,0-5.617-6H11.98ZM39.106,28.285c0,4.3-3.209,6.91-8.533,6.91H21.508a.978.978,0,0,1-.978-.978V11.732a.978.978,0,0,1,.978-.978h9.013c4.44,0,7.354,2.405,7.354,6.1a5.46,5.46,0,0,1-4.458,5.318v.135C36.817,22.678,39.106,25.033,39.106,28.285ZM29.584,13.853H24.416v7.3h4.353c3.365,0,5.221-1.355,5.221-3.777,0-2.27-1.6-3.523-4.405-3.523Zm-5.168,10.2V32.1h5.358c3.5,0,5.36-1.406,5.36-4.048s-1.908-4-5.585-4H24.416Z" transform="translate(979 887)" fill="#7952b3" fill-rule="evenodd"/></g></svg>