<svg xmlns="http://www.w3.org/2000/svg" width="26.436" height="37.315" viewBox="0 0 26.436 37.315"><path d="M392.384,1.381h-2.193l2.281,2.476V5.035h-4.7V3.656h2.281l-2.281-2.476V0h4.613Zm-5.544,0h-2.2l2.284,2.476V5.035h-4.7V3.656h2.281l-2.281-2.476V0h4.612Zm-5.49.057h-2.366V3.6h2.366V5.036H377.3V0h4.05Z" transform="translate(-371.668)" fill="#1572b6"/><path d="M2.406,518.384,0,491.4H26.436l-2.409,26.979-10.825,3Z" transform="translate(0 -484.065)" fill="#1572b6"/><path d="M885.5,664.68l8.747-2.426L896.3,639.2H885.5Z" transform="translate(-872.282 -629.659)" fill="#33a9dc"/><path d="M885.5,852.2h4.38l.3-3.388H885.5V845.5h8.3l-.079.888-.814,9.12H885.5Z" transform="translate(-872.282 -832.879)" fill="#fff"/><path d="M407.856,1630.035h-.015l-3.685-1-.236-2.639H400.6l.464,5.2,6.78,1.887h.019v-3.448Z" transform="translate(-394.62 -1602.123)" fill="#ebebeb"/><path d="M890.19,1506.2l-.4,4.429-3.691,1v3.448l6.784-1.881.049-.56.576-6.433h-3.32Z" transform="translate(-872.873 -1483.717)" fill="#fff"/><path d="M339.19,845.5v3.309H331.2l-.069-.743-.151-1.678-.079-.888Zm-.012,6.7v3.309h-3.644l-.064-.743-.151-1.678-.079-.888h3.936Z" transform="translate(-325.961 -832.879)" fill="#ebebeb"/></svg>