<svg xmlns="http://www.w3.org/2000/svg" width="25.112" height="37.669" viewBox="0 0 25.112 37.669"><path d="M6.278,212.556a6.28,6.28,0,0,0,6.278-6.278V200H6.278a6.278,6.278,0,1,0,0,12.556Z" transform="translate(0 -174.888)" fill="#0acf83"/><path d="M0,106.278A6.28,6.28,0,0,1,6.278,100h6.278v12.556H6.278A6.28,6.28,0,0,1,0,106.278Z" transform="translate(0 -87.444)" fill="#a259ff"/><path d="M0,6.278A6.28,6.28,0,0,1,6.278,0h6.278V12.556H6.278A6.28,6.28,0,0,1,0,6.278Z" fill="#f24e1e"/><path d="M100,0h6.278a6.278,6.278,0,0,1,0,12.556H100Z" transform="translate(-87.444)" fill="#ff7262"/><path d="M112.556,106.278A6.278,6.278,0,1,1,106.278,100,6.28,6.28,0,0,1,112.556,106.278Z" transform="translate(-87.444 -87.444)" fill="#1abcfe"/></svg>