<svg xmlns="http://www.w3.org/2000/svg" width="25.583" height="36.111" viewBox="0 0 25.583 36.111"><path d="M224.135,237.636l-2.328-26.114H247.39l-2.331,26.11-10.477,2.9Z" transform="translate(-221.807 -204.425)" fill="#e44d26"/><path d="M441.807,272.905l8.466-2.347,1.992-22.312H441.807Z" transform="translate(-429.015 -239.014)" fill="#f16529"/><path d="M311.714,309.813h-4.238l-.293-3.28h4.531v-3.2h-8.031l.077.859.787,8.826h7.167Zm0,8.318-.014,0-3.567-.963-.228-2.554H304.69l.449,5.029,6.561,1.821.015,0Z" transform="translate(-298.922 -290.895)" fill="#ebebeb"/><path d="M262.745,89.47h1.628v1.608h1.489V89.47h1.628v4.87h-1.628V92.709h-1.489V94.34h-1.627Zm6.884,1.615H268.2V89.47h4.494v1.615h-1.433V94.34H269.63V91.085ZM273.4,89.47h1.7l1.044,1.711,1.043-1.711h1.7v4.87h-1.621V91.926l-1.12,1.731h-.028L275,91.926V94.34H273.4Zm6.292,0h1.628v3.26h2.289v1.61H279.7Z" transform="translate(-260.365 -89.47)" fill="#e44d26"/><path d="M441.617,309.813v3.2h3.944l-.372,4.154-3.572.964v3.332l6.566-1.82.048-.541.753-8.432.078-.86h-7.445Zm0-6.483v3.2h7.736l.064-.72.146-1.624.077-.859Z" transform="translate(-428.836 -290.895)" fill="#fff"/></svg>