<svg xmlns="http://www.w3.org/2000/svg" width="39.5" height="39.5" viewBox="0 0 39.5 39.5"><path d="M0,0H39.5V39.5H0Z" fill="#f0db4f"/><path d="M302.385,489.4c-.289-1.8-1.464-3.315-4.945-4.727-1.209-.556-2.557-.954-2.959-1.87a2.04,2.04,0,0,1-.071-1.156,1.9,1.9,0,0,1,2.5-1.074,2.751,2.751,0,0,1,1.607,1.491c1.7-1.1,1.7-1.1,2.891-1.855a7.365,7.365,0,0,0-.954-1.277,5.569,5.569,0,0,0-4.656-1.69c-.387.049-.777.1-1.164.15a5.28,5.28,0,0,0-2.8,1.652,5.171,5.171,0,0,0,.939,7.363c2.242,1.682,5.534,2.065,5.955,3.638.409,1.926-1.416,2.549-3.229,2.328a4.232,4.232,0,0,1-2.884-2.193c-1.479.856-1.479.856-3,1.731a6.677,6.677,0,0,0,1.344,1.829c2.861,2.9,10.021,2.76,11.305-1.633A5.423,5.423,0,0,0,302.385,489.4Zm-14.794-11.925H283.9c0,3.192-.015,6.36-.015,9.552,0,2.031.105,3.894-.225,4.464-.541,1.123-1.941.984-2.58.766a3.172,3.172,0,0,1-1.363-1.415,1.9,1.9,0,0,0-.21-.338q-1.5.918-3,1.84a5.937,5.937,0,0,0,2.178,2.493,7.172,7.172,0,0,0,5.279.65,4.665,4.665,0,0,0,2.981-2.335c.841-1.551.661-3.428.653-5.5C287.61,484.257,287.592,480.87,287.592,477.472Z" transform="translate(-266.118 -459.318)" fill="#323330"/></svg>