<svg xmlns="http://www.w3.org/2000/svg" width="55.902" height="41.903" viewBox="0 0 55.902 41.903"><path d="M48.007,24.3a11.517,11.517,0,0,0-5.067,1.179,10.421,10.421,0,0,1-1.135-2.621,7.248,7.248,0,0,1-.1-2.206,17.674,17.674,0,0,1,.666-2.381c-.011-.1-.12-.579-1.245-.59s-2.1.218-2.206.513a12.541,12.541,0,0,0-.47,1.671c-.2,1.026-2.249,4.663-3.418,6.573a6.706,6.706,0,0,1-.775-1.922,7.247,7.247,0,0,1-.1-2.206,17.683,17.683,0,0,1,.666-2.38c-.011-.1-.12-.579-1.245-.59s-2.1.218-2.206.513-.229.994-.47,1.671-2.959,6.748-3.669,8.331c-.36.808-.677,1.452-.906,1.889s-.011.033-.033.076l-.306.579v.011c-.153.273-.317.535-.393.535a3.641,3.641,0,0,1,.022-1.736c.4-2.108,1.387-5.394,1.376-5.514,0-.055.186-.633-.633-.928a1,1,0,0,0-1.147.2c-.066,0-.12.175-.12.175s.884-3.7-1.692-3.7c-1.616,0-3.844,1.758-4.946,3.363-.7.382-2.184,1.19-3.756,2.053-.6.328-1.223.677-1.813.994l-.12-.131c-3.123-3.33-8.9-5.689-8.659-10.166.087-1.627.655-5.918,11.094-11.116,8.55-4.259,15.4-3.09,16.586-.491C33.485,9.66,28.134,16.56,19.246,17.554c-3.385.382-5.165-.928-5.613-1.42-.47-.513-.535-.535-.71-.437-.284.153-.109.611,0,.884a5.271,5.271,0,0,0,3.21,2.522c1.627.535,5.6.83,10.406-1.026,5.383-2.086,9.587-7.873,8.353-12.71C33.638.444,25.47-1.172,17.75,1.568A38.863,38.863,0,0,0,4.592,9.114C.334,13.088-.343,16.56-.059,18c.994,5.143,8.08,8.5,10.919,10.974-.142.076-.273.153-.393.218-1.42.7-6.825,3.527-8.179,6.519-1.529,3.385.24,5.82,1.42,6.148a8.726,8.726,0,0,0,9.4-3.811,9.43,9.43,0,0,0,.841-8.681l-.033-.066,1.114-.655c.721-.426,1.431-.819,2.053-1.158a13.6,13.6,0,0,0-.731,3.713A7.742,7.742,0,0,0,18.023,36.6a1.848,1.848,0,0,0,1.343.437c1.2,0,1.747-.994,2.348-2.184.743-1.452,1.4-3.134,1.4-3.134s-.819,4.553,1.42,4.553c.819,0,1.638-1.059,2.009-1.605v.011s.022-.033.066-.109.09-.137.131-.207v-.022c.328-.568,1.059-1.867,2.151-4.018,1.408-2.773,2.763-6.246,2.763-6.246a19.931,19.931,0,0,0,.535,2.249,21.526,21.526,0,0,0,1.168,2.621c-.328.459-.524.721-.524.721l.011.011c-.262.349-.557.721-.863,1.092a31.735,31.735,0,0,0-2.621,3.287.9.9,0,0,0,.24,1.2,2.186,2.186,0,0,0,1.376.218A6.129,6.129,0,0,0,33.026,35a7.109,7.109,0,0,0,1.769-.928,3.938,3.938,0,0,0,1.692-3.483,7,7,0,0,0-.644-2.457c.1-.142.2-.284.295-.437A46.093,46.093,0,0,0,39.2,22.4a19.931,19.931,0,0,0,.535,2.249,15.77,15.77,0,0,0,.994,2.249,9.707,9.707,0,0,0-2.981,3.855c-.644,1.856-.142,2.7.808,2.894a2.907,2.907,0,0,0,1.5-.306,6.779,6.779,0,0,0,1.889-.972,4.271,4.271,0,0,0,2.086-3.45,6.615,6.615,0,0,0-.47-2.042,10.638,10.638,0,0,1,5.416-.622c4.859.568,5.82,3.6,5.634,4.87a3.262,3.262,0,0,1-1.54,2.184c-.339.207-.448.284-.415.437.044.229.2.218.491.175a3.78,3.78,0,0,0,2.642-3.374c.131-3-2.719-6.279-7.775-6.246ZM10.532,36.936c-1.605,1.758-3.865,2.424-4.826,1.856-1.037-.6-.633-3.188,1.343-5.056a25.692,25.692,0,0,1,3.789-2.828c.229-.142.579-.349.994-.6a1.165,1.165,0,0,1,.109-.066c.076-.044.164-.1.251-.153a6.965,6.965,0,0,1-1.66,6.846Zm11.738-7.982c-.557,1.365-1.736,4.87-2.446,4.673-.612-.164-.983-2.817-.12-5.438a12.139,12.139,0,0,1,1.911-3.505c.885-.983,1.845-1.31,2.086-.906C23.985,24.3,22.62,28.1,22.271,28.954Zm9.685,4.63c-.24.12-.459.207-.557.142-.076-.044.1-.207.1-.207s1.212-1.3,1.692-1.9c.273-.349.6-.753.95-1.212v.131c0,1.572-1.507,2.621-2.184,3.046Zm7.469-1.7c-.175-.131-.153-.535.437-1.8a6.751,6.751,0,0,1,1.66-2.14,2.7,2.7,0,0,1,.164.939A3.072,3.072,0,0,1,39.425,31.88Z" transform="translate(0.116 -0.241)" fill="#cf649a"/></svg>