<svg xmlns="http://www.w3.org/2000/svg" width="42.038" height="38.038" viewBox="0 0 42.038 38.038"><path d="M8.513,0l12.5,24.474L0,0Z" transform="translate(0 13.564)" fill="#ea6c00" fill-rule="evenodd"/><path d="M8.513,24.474,21.017,0,0,24.474Z" transform="translate(42.038 38.038) rotate(180)" fill="#ea6c00" fill-rule="evenodd"/><path d="M0,0H25.008L12.5,24.474Z" transform="translate(8.513 13.564)" fill="#fdad00" fill-rule="evenodd"/><path d="M12.5,0,.658,1.252,0,13.564Z" transform="translate(8.513 0)" fill="#fdd231" fill-rule="evenodd"/><path d="M12.5,13.564.658,12.311,0,0Z" transform="translate(33.521 13.564) rotate(180)" fill="#fdd231" fill-rule="evenodd"/><path d="M0,0,9.171,12.311,8.513,0Z" transform="translate(42.038 13.564) rotate(180)" fill="#fdad00" fill-rule="evenodd"/><path d="M0,12.311,9.171,0,8.513,12.311Z" transform="translate(0 1.252)" fill="#fdad00" fill-rule="evenodd"/><path d="M12.5,0,0,13.564H25.008Z" transform="translate(8.513 0)" fill="#feeeb7" fill-rule="evenodd"/></svg>