<svg xmlns="http://www.w3.org/2000/svg" width="45.593" height="44.453" viewBox="0 0 45.593 44.453"><path d="M37.519,44.453H8.074A8.067,8.067,0,0,1,0,36.38V8.074A8.067,8.067,0,0,1,8.074,0H37.519a8.067,8.067,0,0,1,8.074,8.074V36.38A8.067,8.067,0,0,1,37.519,44.453Z" fill="#ff26be"/><path d="M139.1,144.852h-28a6.908,6.908,0,0,1-6.9-6.9V111.1a6.908,6.908,0,0,1,6.9-6.9h27.983a6.9,6.9,0,0,1,6.9,6.9v26.843a6.884,6.884,0,0,1-6.877,6.914Z" transform="translate(-102.3 -102.3)" fill="#2e001f"/><path d="M476.206,602.79l5.32,10.22c.095.151.038.3-.115.3H478.1a.373.373,0,0,1-.4-.246c-1.216-2.508-2.451-5.015-3.724-7.713h-.038c-1.14,2.546-2.395,5.225-3.609,7.733a.367.367,0,0,1-.343.21h-3.131c-.19,0-.21-.151-.113-.266l5.2-9.917-5.033-10.03a.154.154,0,0,1,.113-.266H470.3a.3.3,0,0,1,.341.21c1.2,2.508,2.413,5.092,3.553,7.618h.038c1.1-2.508,2.318-5.11,3.5-7.6.095-.151.151-.246.343-.246h3.058c.151,0,.21.115.115.266Zm6.252,3.1c0-4.426,2.945-7.884,7.618-7.884a8.38,8.38,0,0,1,.988.038v-5.034a.189.189,0,0,1,.19-.19h3c.151,0,.19.057.19.151v17.44a13.573,13.573,0,0,0,.095,1.862c0,.115-.038.151-.151.21a11.309,11.309,0,0,1-4.864,1.1c-4.123.016-7.069-2.528-7.067-7.7Zm8.6-4.862a2.856,2.856,0,0,0-1.1-.19c-2.395,0-4.065,1.842-4.065,4.9,0,3.5,1.711,4.9,3.857,4.9a3.561,3.561,0,0,0,1.311-.21v-9.4Z" transform="translate(-458.178 -581.989)" fill="#ffd9f2"/></svg>