<?xml version="1.0" encoding="UTF-8"?>
<svg viewBox="0 0 30 30" version="1.1" xmlns="http://www.w3.org/2000/svg" xmlns:xlink="http://www.w3.org/1999/xlink">
    <defs>
        <linearGradient x1="1.87571302%" y1="98.0329032%" x2="76.4080055%" y2="23.6420747%" id="linearGradient-1">
            <stop stop-color="#E21A54" offset="0%"></stop>
            <stop stop-color="#AC1F62" offset="100%"></stop>
        </linearGradient>
    </defs>
    <path id="favicon" fill="url(#linearGradient-1)" d="M14.8868401,0 C14.3459402,0 13.8572614,0.218956697 13.5032578,0.572909253 L13.5032578,0.572909253 C10.7410404,3.33593424 3.33280082,10.7475361 0.57113311,13.5111099 L0.57113311,13.5111099 C0.218228917,13.8639649 0,14.351267 0,14.890153 L0,14.890153 C0,15.9679248 0.875664143,16.8421053 1.95526513,16.8421053 L1.95526513,16.8421053 C2.49561532,16.8421053 2.98539357,16.6225998 3.33884746,16.2686472 L3.33884746,16.2686472 C6.10051517,13.5056223 13.5060063,6.09621542 16.2687734,3.33154414 L16.2687734,3.33154414 L16.2693231,3.33154414 C16.2698728,3.33099537 16.2704225,3.33044661 16.2704225,3.32989784 L16.2704225,3.32989784 C16.6238763,2.97704282 16.8421053,2.48974069 16.8421053,1.95195231 L16.8421053,1.95195231 C16.8421053,0.873631735 15.9669908,0 14.8868401,0 Z M26.6611525,13.7308227 C23.8989351,16.4939377 16.4906956,23.9063299 13.7295775,26.6694449 L13.7295775,26.6694449 C13.3766733,27.0228602 13.1578947,27.5096294 13.1578947,28.0479841 L13.1578947,28.0479841 C13.1578947,29.1120715 14.0104717,29.9775 15.0702837,30 L15.0702837,30 L15.1560361,30 C15.6798954,29.9884756 16.1526331,29.7717069 16.4967422,29.4270721 L16.4967422,29.4270721 C19.2589596,26.6639571 26.6671992,19.2510161 29.4294166,16.4884499 L29.4294166,16.4884499 L29.4288669,16.4884499 C29.7823208,16.1350346 30,15.6477166 30,15.1099107 L30,15.1099107 C30,14.0315549 29.1248856,13.1578947 28.0447349,13.1578947 L28.0447349,13.1578947 C27.5043847,13.1578947 27.0151561,13.3774074 26.6611525,13.7308227 L26.6611525,13.7308227 Z M13.5032578,13.7308227 C10.7410404,16.4939377 3.33280082,23.9063299 0.57113311,26.6694449 L0.57113311,26.6694449 C0.218228917,27.0228602 0,27.5096294 0,28.0479841 L0,28.0479841 C0,29.1120715 0.852576953,29.9775 1.91238892,30 L1.91238892,30 L1.99814134,30 C2.52145099,29.9884756 2.99473839,29.7717069 3.33884746,29.4270721 L3.33884746,29.4270721 C6.10106486,26.6639571 13.5087548,19.2510161 16.2704225,16.4884499 L16.2704225,16.4884499 C16.6238763,16.1350346 16.8421053,15.6477166 16.8421053,15.1099107 L16.8421053,15.1099107 C16.8421053,14.0315549 15.9669908,13.1578947 14.8868401,13.1578947 L14.8868401,13.1578947 C14.3459402,13.1578947 13.8572614,13.3774074 13.5032578,13.7308227 L13.5032578,13.7308227 Z"></path>
</svg>